<?xml version="1.0" standalone="no"?>
<!DOCTYPE svg PUBLIC "-//W3C//DTD SVG 20010904//EN"
 "http://www.w3.org/TR/2001/REC-SVG-20010904/DTD/svg10.dtd">
<svg version="1.0" xmlns="http://www.w3.org/2000/svg"
 width="260.000000pt" height="260.000000pt" viewBox="0 0 260.000000 260.000000"
 preserveAspectRatio="xMidYMid meet">
<metadata>
Created by potrace 1.11, written by Peter Selinger 2001-2013
</metadata>
<g transform="translate(0.000000,260.000000) scale(0.100000,-0.100000)"
fill="#000000" stroke="none">
<path d="M1487 2544 c-1 -1 -47 -4 -102 -8 -108 -6 -278 -47 -392 -92 -262
-105 -483 -291 -617 -521 -39 -67 -102 -223 -111 -272 -3 -19 -8 -37 -10 -41
-18 -30 -26 -305 -12 -413 17 -124 81 -305 154 -435 52 -95 171 -248 254 -328
85 -81 211 -177 311 -235 86 -50 262 -129 287 -129 15 0 25 18 47 82 14 46 28
86 30 90 2 3 28 0 57 -8 174 -47 372 -36 522 30 223 99 404 341 450 601 37
216 10 390 -126 791 -68 201 -108 346 -148 544 l-28 135 19 54 c10 30 18 57
18 62 0 16 -216 70 -340 84 -51 6 -258 13 -263 9z"/>
</g>
</svg>
